<?xml version="1.0" encoding="UTF-8" standalone="no"?>
<svg
   width="700pt"
   height="700pt"
   version="1.1"
   viewBox="0 0 700 700"
   id="svg4"
   sodipodi:docname="trash_dislike.svg"
   inkscape:version="1.2.2 (732a01da63, 2022-12-09)"
   xmlns:inkscape="http://www.inkscape.org/namespaces/inkscape"
   xmlns:sodipodi="http://sodipodi.sourceforge.net/DTD/sodipodi-0.dtd"
   xmlns="http://www.w3.org/2000/svg"
   xmlns:svg="http://www.w3.org/2000/svg">
  <defs
     id="defs8" />
  <sodipodi:namedview
     id="namedview6"
     pagecolor="#505050"
     bordercolor="#ffffff"
     borderopacity="1"
     inkscape:showpageshadow="0"
     inkscape:pageopacity="0"
     inkscape:pagecheckerboard="1"
     inkscape:deskcolor="#505050"
     inkscape:document-units="pt"
     showgrid="false"
     inkscape:zoom="1.430376"
     inkscape:cx="446.73568"
     inkscape:cy="427.85953"
     inkscape:window-width="3360"
     inkscape:window-height="1766"
     inkscape:window-x="4468"
     inkscape:window-y="-12"
     inkscape:window-maximized="1"
     inkscape:current-layer="svg4" />
  <path
     id="path2"
     d="M 314.99854 46.674316 C 295.67056 46.674316 279.99756 62.341866 279.99756 81.673828 L 279.99756 93.333984 L 175.00488 93.333984 C 168.5635 93.333984 163.3374 98.560082 163.3374 105.00146 C 163.3374 111.44286 168.5635 116.67041 175.00488 116.67041 L 187.97021 116.67041 L 196.09863 262.98486 C 182.82135 267.70946 175.53724 280.04143 175.21875 300.72803 C 162.51164 311.66602 158.95753 325.06486 161.84033 341.31885 C 150.11014 351.61184 145.33984 373.37374 151.76953 387.86572 C 148.24223 394.45172 146.01191 402.78318 146.00391 410.32617 C 145.98791 430.90015 156.3318 444.18167 177.17578 447.69727 C 184.82377 448.98636 193.31637 449.79151 202.53516 450.17432 C 203.83903 450.2285 205.18439 450.22924 206.50195 450.2666 L 207.55664 469.25977 C 208.82851 492.13493 226.43427 510.37052 248.66748 512.98242 C 255.8324 528.76441 269.08319 541.43754 283.95703 548.11963 C 295.32802 553.22892 305.82522 550.92427 313.70801 544.14697 C 316.47361 541.76808 318.36716 539.35739 319.53516 537.4043 C 320.6914 535.4707 321.23926 533.23193 321.10254 530.97803 C 321.04785 530.02103 320.95796 528.26807 320.86816 525.95947 C 320.6768 521.09588 320.58251 516.16602 320.64111 511.61133 C 320.68798 507.96293 320.83252 504.76371 321.07471 502.16602 C 321.49904 497.65838 322.02521 493.72534 322.73877 490.00342 C 324.75778 479.47226 328.35768 470.69975 336.02344 455.91943 C 339.08543 450.04844 344.17235 443.49413 350.72314 436.68164 C 353.42234 433.87304 356.25344 431.13427 359.14014 428.50928 L 359.14307 428.50635 C 360.74076 429.11571 362.51413 429.36865 364.36963 429.16553 C 398.1236 425.41943 414.72213 426.01363 440.05811 432.86133 C 446.449 434.58753 452.93706 430.42328 454.02686 423.89209 C 465.40215 355.79016 467.17067 305.00904 453.09668 258.89209 C 451.80378 254.66549 448.14743 251.59229 443.75684 251.04932 C 436.22779 250.11819 429.83991 249.4161 423.91406 248.83154 L 427.00049 163.33447 L 406.77686 163.33447 L 403.74023 247.46338 C 386.82761 247.12566 375.67056 249.75997 359.33057 255.99023 L 359.33057 163.33447 L 340.66553 163.33447 L 340.66553 260.94434 C 328.22563 260.0007 312.9416 259.31833 296.6748 258.94043 L 293.2251 163.33447 L 272.99854 163.33447 L 276.43945 258.62402 C 253.17004 258.42236 231.01424 258.78726 217.45313 259.76514 L 210 116.67041 L 489.99609 116.67041 L 471.93457 463.46045 C 471.16157 478.33941 458.87161 490.00342 443.97363 490.00342 L 322.73877 490.00342 C 322.02521 493.72533 321.49904 497.65838 321.07471 502.16602 C 320.83252 504.7637 320.68798 507.96293 320.64111 511.61133 C 320.63411 512.15957 320.67175 512.78004 320.66895 513.33838 L 445.86035 513.33838 C 470.62631 513.33838 491.0791 493.98971 492.4541 469.25977 L 512.04053 116.67041 L 525.00439 116.67041 C 531.44579 116.67041 536.67334 111.44286 536.67334 105.00146 C 536.67334 98.560082 531.44579 93.333984 525.00439 93.333984 L 419.99854 93.333984 L 419.99854 81.673828 C 419.99854 62.341866 404.32552 46.674316 384.99756 46.674316 L 314.99854 46.674316 z M 314.99854 70.006348 L 384.99756 70.006348 C 391.43894 70.006348 396.6665 75.228542 396.6665 81.673828 L 396.6665 93.333984 L 303.32959 93.333984 L 303.32959 81.673828 C 303.32959 75.228542 308.55714 70.006348 314.99854 70.006348 z M 404.04639 269.80518 C 411.73033 269.99075 421.03989 270.88769 433.64063 272.38477 C 443.53115 309.95839 442.38556 352.81674 433.84277 408.29297 C 415.17879 404.26957 399.16366 403.60108 376.42969 405.47607 C 382.02688 361.90412 379.26856 306.5691 371.46387 275.30713 C 382.94823 271.16163 391.23981 269.49589 404.04639 269.80518 z M 256.04443 280.97021 C 289.2686 280.76363 330.97094 281.88181 350.59717 284.25 C 357.03466 313.00997 359.30128 363.85712 354.12158 403.33008 C 352.86404 404.34159 351.34514 405.58983 349.62305 407.05811 C 344.50175 411.41 339.38427 416.15333 334.57178 421.15723 C 326.67379 429.38022 320.36527 437.50878 316.20117 445.49707 C 304.52518 467.99705 300.69192 479.66891 298.77393 500.06689 C 298.46534 503.34439 298.29835 507.12112 298.24365 511.32422 C 298.18115 516.31221 298.27832 521.60933 298.48535 526.82813 C 297.03995 528.68359 295.6216 528.80079 293.13721 527.68359 C 275.69922 519.8516 261.19971 498.97301 266.69971 477.83203 C 272.56298 455.28505 274.06691 442.29979 272.69971 435.35449 C 272.38721 433.76079 271.90332 432.37016 271.21582 431.14746 C 268.98972 427.20216 264.60694 424.98437 260.11084 425.53125 C 259.51314 425.60547 258.32516 425.7373 256.61426 425.90918 C 253.72746 426.20215 250.46629 426.5 246.89209 426.77344 C 232.2751 427.90232 217.31732 428.36669 203.46533 427.78857 C 195.12634 427.44477 187.5405 426.72559 180.90381 425.60449 C 171.23592 423.97549 168.39553 420.33204 168.40723 410.34375 C 168.41123 405.00416 171.05276 398.02737 173.06836 396.10547 C 177.86128 391.53447 177.66891 383.82762 172.64941 379.50732 C 168.88772 376.27333 172.99809 358.62061 176.77148 357.89795 C 183.25588 356.65195 187.25883 350.09664 185.41113 343.76074 C 181.33264 329.78376 182.8061 322.35837 192.89209 315.34277 C 196.04449 313.15138 197.85303 309.49508 197.68506 305.66309 C 197.01716 290.3002 199.52055 285.49511 203.66895 284.05371 C 204.96974 283.60449 205.99805 283.44433 209.56055 283.08105 C 210.57225 282.97949 211.26758 282.89746 211.99805 282.78809 C 219.22804 281.69384 236.10993 281.09416 256.04443 280.97021 z M 406.9834 282.66504 C 397.95641 282.66504 388.63963 289.57816 390.24902 299.15625 C 391.85902 308.73044 396.19146 315.6958 405.46875 315.6958 C 414.74614 315.6958 424.73095 310.67924 423.84814 299.15625 C 422.96915 287.63306 416.00825 282.66504 406.98486 282.66504 L 406.9834 282.66504 z M 250.01221 449.00244 C 249.14501 454.87344 247.53172 462.54059 245.02002 472.19678 C 243.72721 477.16723 243.16886 482.06154 243.11865 486.85547 C 234.58153 482.41494 228.59379 473.69995 228.06152 463.46045 L 227.37305 450.24023 C 234.44781 450.02739 241.56655 449.65316 248.61328 449.11084 C 249.0859 449.07566 249.55127 449.03764 250.01221 449.00244 z M 217.04297 450.40283 C 216.96562 450.40297 216.88738 450.40568 216.81006 450.40576 C 216.88743 450.40556 216.96557 450.40308 217.04297 450.40283 z M 243.42334 493.53223 C 243.43586 493.65484 243.44816 493.77748 243.46143 493.8999 C 243.44849 493.77728 243.43554 493.65504 243.42334 493.53223 z M 244.41211 499.89111 C 244.46741 500.15262 244.51167 500.41732 244.57031 500.67773 C 244.51259 500.41679 244.46649 500.15315 244.41211 499.89111 z M 246.03809 506.04346 C 246.14724 506.38303 246.23389 506.73156 246.34863 507.06885 C 246.23466 506.73083 246.14634 506.38378 246.03809 506.04346 z "
     style="fill:#d3d8d9;fill-opacity:1" />
  <g
     id="g273"
     transform="translate(-47.199029,118.60963)"
     style="display:inline" />
</svg>
